# xmcd
# 
# Track frame offsets:
#     150
#     6400
#     29227
#     49757
#     72907
#     94117
#     115822
#     134660
#     157245
#     180017
#     203617
#     224480
#     243940
#     264760
#     286882
#     307312
# 
# Disc length: 4169
# 
# Revision: 6
# Processed by: cddbd v1.5.2PL0 Copyright (c) Steve Scherf et al.
# Submitted via: fre:ac v1.0.17
# 
DISCID=ed104710
DTITLE=Somethin' For The People - This Time It's Personal
DYEAR=1997
DGENRE=R&B
TTITLE0=This Time It's Personal (Intro)
TTITLE1=All I Do
TTITLE2=Days Like This
TTITLE3=My Love Is The Shhh! (Feat. Trina and Tamara)
TTITLE4=Take It Or Leave It
TTITLE5=Act Like You Want It (Feat. Eric Benét)
TTITLE6=Feel So Good (Feat. Puff Johnson)
TTITLE7=What In The World?
TTITLE8=Somebody's Always Talkin'  (Feat. Trina and Tamara)
TTITLE9=I Got Love (Feat. DJ Kool)
TTITLE10=She's Always In My Hair
TTITLE11=I Don't Get Down Like That
TTITLE12=Playin' The Field
TTITLE13=Think Of You
TTITLE14=My Love Is The Shhh! (Remix)
TTITLE15=Outro
EXTD=
EXTT0=
EXTT1=
EXTT2=
EXTT3=
EXTT4=
EXTT5=
EXTT6=
EXTT7=
EXTT8=
EXTT9=
EXTT10=
EXTT11=
EXTT12=
EXTT13=
EXTT14=
EXTT15=
PLAYORDER=
